<svg width="48" height="30" viewBox="0 0 48 30" fill="none" xmlns="http://www.w3.org/2000/svg">
<path d="M38.9976 6.9616C38.9976 10.3771 36.3109 13.1459 32.9967 13.1459C29.6825 13.1459 26.9958 10.3771 26.9958 6.9616C26.9958 3.54613 29.6825 0.777344 32.9967 0.777344C36.3109 0.777344 38.9976 3.54613 38.9976 6.9616Z" fill="url(#paint0_linear_18084_31599)"/>
<path d="M41.9192 10.5212L47.1971 19.9388V19.9436C48.8509 22.9043 47.8681 26.683 45 28.3922C42.1271 30.1014 38.4604 29.0837 36.8019 26.1279L31.5239 16.7054C32.0106 16.7833 32.502 16.8272 33.0029 16.8272C34.6756 16.8272 36.3247 16.3694 37.78 15.5027C39.6937 14.3632 41.1348 12.6199 41.9192 10.5212Z" fill="url(#paint1_linear_18084_31599)"/>
<path d="M6.72184 11.8943C6.47141 11.4464 6.26823 10.9837 6.08867 10.5114L0.806005 19.9387C-0.852507 22.8945 0.130315 26.6781 3.00318 28.3873C5.87132 30.0965 9.54273 29.0837 11.2012 26.123L12.9495 23.0065L6.72184 11.8943Z" fill="url(#paint2_linear_18084_31599)"/>
<path d="M20.2028 3.8695L29.2041 19.9388H29.2088C30.8673 22.8995 29.8798 26.6782 27.0116 28.3874C24.1388 30.0966 20.4721 29.0789 18.8136 26.1231L9.81226 10.0538C8.15375 7.09311 9.1413 3.31438 12.0094 1.60519C14.8776 -0.0991364 18.549 0.913718 20.2028 3.8695Z" fill="url(#paint3_linear_18084_31599)"/>
<defs>
<linearGradient id="paint0_linear_18084_31599" x1="48" y1="0.777344" x2="-3.65555e-07" y2="28.7773" gradientUnits="userSpaceOnUse">
<stop stop-color="#211E43"/>
<stop offset="1" stop-color="#535359"/>
</linearGradient>
<linearGradient id="paint1_linear_18084_31599" x1="48" y1="0.777344" x2="-3.65555e-07" y2="28.7773" gradientUnits="userSpaceOnUse">
<stop stop-color="#211E43"/>
<stop offset="1" stop-color="#535359"/>
</linearGradient>
<linearGradient id="paint2_linear_18084_31599" x1="48" y1="0.777344" x2="-3.65555e-07" y2="28.7773" gradientUnits="userSpaceOnUse">
<stop stop-color="#211E43"/>
<stop offset="1" stop-color="#535359"/>
</linearGradient>
<linearGradient id="paint3_linear_18084_31599" x1="48" y1="0.777344" x2="-3.65555e-07" y2="28.7773" gradientUnits="userSpaceOnUse">
<stop stop-color="#211E43"/>
<stop offset="1" stop-color="#535359"/>
</linearGradient>
</defs>
</svg>
